<svg width="312" height="52" viewBox="0 0 312 52" version="1.1" xmlns="http://www.w3.org/2000/svg" xmlns:xlink="http://www.w3.org/1999/xlink">
<title>pl_logo</title>
<g id="Canvas" transform="matrix(2 0 0 2 -11164 506)">
<g id="pl_logo">
<g id="Group">
<g id="Ellipse (Stroke)">
<use xlink:href="#path0_fill" transform="translate(5608.01 -253)" fill="url(#paint0_linear)"/>
</g>
<g id="Vector (Stroke)">
<use xlink:href="#path1_fill" transform="matrix(0.966046 -0.258369 0.25927 0.965805 5618.46 -247.987)" fill="url(#paint1_linear)"/>
</g>
<g id="Ellipse 2.4">
<use xlink:href="#path2_fill" transform="translate(5628.17 -239.928)" fill="#37B8FD"/>
</g>
</g>
<g id="P">
<use xlink:href="#path3_fill" transform="translate(5582 -251.2)" fill="#7A7A7A"/>
</g>
<g id="PLAB">
<use xlink:href="#path4_fill" transform="translate(5645.12 -251.2)" fill="#7A7A7A"/>
<use xlink:href="#path5_fill" transform="translate(5645.12 -251.2)" fill="#7A7A7A"/>
<use xlink:href="#path6_fill" transform="translate(5645.12 -251.2)" fill="#7A7A7A"/>
<use xlink:href="#path7_fill" transform="translate(5645.12 -251.2)" fill="#7A7A7A"/>
</g>
</g>
</g>
<defs>
<linearGradient id="paint0_linear" x1="0" y1="0" x2="1" y2="0" gradientUnits="userSpaceOnUse" gradientTransform="matrix(18.0987 18.4267 -18.4611 18.0649 13.0726 -5.29406)">
<stop offset="0" stop-color="#81F0BB"/>
<stop offset="1" stop-color="#36B6FF"/>
</linearGradient>
<linearGradient id="paint1_linear" x1="0" y1="0" x2="1" y2="0" gradientUnits="userSpaceOnUse" gradientTransform="matrix(5.12004 5.21415 -5.22258 5.11178 4.37469 -0.822627)">
<stop offset="0" stop-color="#80EEBC"/>
<stop offset="1" stop-color="#37B8FD"/>
</linearGradient>
<path id="path0_fill" fill-rule="evenodd" d="M 13.0243 24.2635C 19.2565 24.2635 24.3087 19.2206 24.3087 13C 24.3087 6.77937 19.2565 1.73655 13.0243 1.73655C 6.79202 1.73655 1.73979 6.77937 1.73979 13C 1.73979 19.2206 6.79202 24.2635 13.0243 24.2635ZM 13.0243 26C 20.2174 26 26.0485 20.1797 26.0485 13C 26.0485 5.8203 20.2174 0 13.0243 0C 5.83116 0 0 5.8203 0 13C 0 20.1797 5.83116 26 13.0243 26Z"/>
<path id="path1_fill" fill-rule="evenodd" d="M 0.000532935 0.648866C 0.0152214 0.276136 0.329774 -0.0141327 0.703107 0.000532075C 2.03474 0.0528396 4.01509 0.508489 5.68139 1.72461C 7.37896 2.96356 8.72204 4.97568 8.72204 8.03255C 8.72204 8.40557 8.41916 8.70796 8.04554 8.70796C 7.67192 8.70796 7.36904 8.40557 7.36904 8.03255C 7.36904 5.4353 6.25577 3.81708 4.88292 2.81512C 3.47878 1.79033 1.77463 1.39449 0.649915 1.35031C 0.276583 1.33564 -0.0141555 1.0216 0.000532935 0.648866Z"/>
<path id="path2_fill" d="M 1.44983 0.723562C 1.44983 1.12317 1.12527 1.44712 0.724913 1.44712C 0.324554 1.44712 0 1.12317 0 0.723562C 0 0.32395 0.324554 0 0.724913 0C 1.12527 0 1.44983 0.32395 1.44983 0.723562Z"/>
<path id="path3_fill" d="M 8.13716 0C 10.9117 0 13.0857 0.661334 14.6593 1.984C 16.2329 3.30667 17.0197 5.12533 17.0197 7.44C 17.0197 9.75467 16.2329 11.5733 14.6593 12.896C 13.0857 14.198 10.9117 14.849 8.13716 14.849L 2.29828 14.849L 2.29828 21.7L 0 21.7L 0 0L 8.13716 0ZM 8.07504 12.834C 10.2284 12.834 11.8745 12.369 13.0132 11.439C 14.152 10.4883 14.7214 9.15533 14.7214 7.44C 14.7214 5.68333 14.152 4.34 13.0132 3.41C 11.8745 2.45933 10.2284 1.984 8.07504 1.984L 2.29828 1.984L 2.29828 12.834L 8.07504 12.834Z"/>
<path id="path4_fill" d="M 8.13716 0C 10.9117 0 13.0857 0.661334 14.6593 1.984C 16.2329 3.30667 17.0197 5.12533 17.0197 7.44C 17.0197 9.75467 16.2329 11.5733 14.6593 12.896C 13.0857 14.198 10.9117 14.849 8.13716 14.849L 2.29828 14.849L 2.29828 21.7L 0 21.7L 0 0L 8.13716 0ZM 8.07504 12.834C 10.2284 12.834 11.8745 12.369 13.0132 11.439C 14.152 10.4883 14.7214 9.15533 14.7214 7.44C 14.7214 5.68333 14.152 4.34 13.0132 3.41C 11.8745 2.45933 10.2284 1.984 8.07504 1.984L 2.29828 1.984L 2.29828 12.834L 8.07504 12.834Z"/>
<path id="path5_fill" d="M 26.0267 0L 28.325 0L 28.325 19.716L 40.4997 19.716L 40.4997 21.7L 26.0267 21.7L 26.0267 0Z"/>
<path id="path6_fill" d="M 62.0483 15.903L 49.9357 15.903L 47.3268 21.7L 44.9354 21.7L 54.8739 0L 57.1411 0L 67.0796 21.7L 64.6571 21.7L 62.0483 15.903ZM 61.2097 14.043L 55.992 2.387L 50.7743 14.043L 61.2097 14.043Z"/>
<path id="path7_fill" d="M 88.4101 10.509C 89.8387 10.819 90.9361 11.439 91.7022 12.369C 92.489 13.2783 92.8824 14.4563 92.8824 15.903C 92.8824 17.763 92.1888 19.1993 90.8015 20.212C 89.435 21.204 87.4059 21.7 84.7142 21.7L 74.7136 21.7L 74.7136 0L 84.093 0C 86.5156 0 88.3894 0.485666 89.7145 1.457C 91.0604 2.42833 91.7333 3.80267 91.7333 5.58C 91.7333 6.77867 91.4331 7.80167 90.8326 8.649C 90.2529 9.47567 89.4454 10.0957 88.4101 10.509ZM 77.0119 1.891L 77.0119 9.765L 83.9378 9.765C 85.6977 9.765 87.0539 9.43433 88.0063 8.773C 88.9588 8.091 89.435 7.10933 89.435 5.828C 89.435 4.54667 88.9588 3.57533 88.0063 2.914C 87.0539 2.232 85.6977 1.891 83.9378 1.891L 77.0119 1.891ZM 84.6831 19.809C 86.6294 19.809 88.0995 19.4783 89.0934 18.817C 90.0872 18.1557 90.5841 17.1223 90.5841 15.717C 90.5841 13.0097 88.6171 11.656 84.6831 11.656L 77.0119 11.656L 77.0119 19.809L 84.6831 19.809Z"/>
</defs>
</svg>
