<svg width="304" height="437" viewBox="0 0 304 437" version="1.1" xmlns="http://www.w3.org/2000/svg" xmlns:xlink="http://www.w3.org/1999/xlink">
<title>tablet</title>
<desc>Created using Figma</desc>
<g id="Canvas" transform="translate(-6289 -747)">
<g id="tablet">
<g id="Union">
<mask id="mask0_outline_ins">
<use xlink:href="#path0_fill" fill="white" transform="matrix(6.12323e-17 1 -1 6.12323e-17 6591 749)"/>
</mask>
<g mask="url(#mask0_outline_ins)">
<use xlink:href="#path1_stroke_2x" transform="matrix(6.12323e-17 1 -1 6.12323e-17 6591 749)" fill="#787878"/>
</g>
</g>
<g id="Rectangle 3">
<use xlink:href="#path2_stroke" transform="matrix(6.12323e-17 1 -1 6.12323e-17 6591 749)" fill="#787878"/>
</g>
<g id="Ellipse">
<use xlink:href="#path3_fill" transform="matrix(6.12323e-17 1 -1 6.12323e-17 6454 1145)" fill="#FFFFFF"/>
<mask id="mask1_outline_ins">
<use xlink:href="#path3_fill" fill="white" transform="matrix(6.12323e-17 1 -1 6.12323e-17 6454 1145)"/>
</mask>
<g mask="url(#mask1_outline_ins)">
<use xlink:href="#path4_stroke_2x" transform="matrix(6.12323e-17 1 -1 6.12323e-17 6454 1145)" fill="#787878"/>
</g>
</g>
<g id="Ellipse">
<use xlink:href="#path5_fill" transform="matrix(6.12323e-17 1 -1 6.12323e-17 6445 773)" fill="#5C5C5C"/>
</g>
</g>
</g>
<defs>
<path id="path0_fill" fill-rule="evenodd" d="M 13 287L 13 13L 387 13L 387 287L 13 287ZM 0 10C 3.38183e-16 4.47705 4.47717 -3.38176e-16 10 0L 423 0C 428.523 3.38176e-16 433 4.47705 433 10L 433 290C 433 295.523 428.523 300 423 300L 10 300C 4.47717 300 -1.14025e-13 295.523 -1.13687e-13 290L 0 10Z"/>
<path id="path1_stroke_2x" d="M 13 13L 13 11L 11 11L 11 13L 13 13ZM 13 287L 11 287L 11 289L 13 289L 13 287ZM 387 13L 389 13L 389 11L 387 11L 387 13ZM 387 287L 387 289L 389 289L 389 287L 387 287ZM -1.13687e-13 290L -2 290L -1.13687e-13 290ZM 11 13L 11 287L 15 287L 15 13L 11 13ZM 387 11L 13 11L 13 15L 387 15L 387 11ZM 389 287L 389 13L 385 13L 385 287L 389 287ZM 13 289L 387 289L 387 285L 13 285L 13 289ZM 10 -2C 3.37262 -2 -2 3.37247 -2 10L 2 10C 2 5.58164 5.58173 2 10 2L 10 -2ZM 423 -2L 10 -2L 10 2L 423 2L 423 -2ZM 435 10C 435 3.37247 429.627 -2 423 -2L 423 2C 427.418 2 431 5.58164 431 10L 435 10ZM 435 290L 435 10L 431 10L 431 290L 435 290ZM 423 302C 429.627 302 435 296.628 435 290L 431 290C 431 294.418 427.418 298 423 298L 423 302ZM 10 302L 423 302L 423 298L 10 298L 10 302ZM -2 290C -2 296.628 3.37262 302 10 302L 10 298C 5.58173 298 2 294.418 2 290L -2 290ZM -2 10L -2 290L 2 290L 2 10L -2 10Z"/>
<path id="path2_stroke" d="M 10 2L 423 2L 423 -2L 10 -2L 10 2ZM 431 10L 431 290L 435 290L 435 10L 431 10ZM 423 298L 10 298L 10 302L 423 302L 423 298ZM 2 290L 2 10L -2 10L -2 290L 2 290ZM 10 298C 5.58172 298 2 294.418 2 290L -2 290C -2 296.627 3.37258 302 10 302L 10 298ZM 431 290C 431 294.418 427.418 298 423 298L 423 302C 429.627 302 435 296.627 435 290L 431 290ZM 423 2C 427.418 2 431 5.58172 431 10L 435 10C 435 3.37258 429.627 -2 423 -2L 423 2ZM 10 -2C 3.37258 -2 -2 3.37258 -2 10L 2 10C 2 5.58172 5.58172 2 10 2L 10 -2Z"/>
<path id="path3_fill" d="M 26 13C 26 20.1797 20.1797 26 13 26C 5.8203 26 0 20.1797 0 13C 0 5.8203 5.8203 0 13 0C 20.1797 0 26 5.8203 26 13Z"/>
<path id="path4_stroke_2x" d="M 24 13C 24 19.0751 19.0751 24 13 24L 13 28C 21.2843 28 28 21.2843 28 13L 24 13ZM 13 24C 6.92487 24 2 19.0751 2 13L -2 13C -2 21.2843 4.71573 28 13 28L 13 24ZM 2 13C 2 6.92487 6.92487 2 13 2L 13 -2C 4.71573 -2 -2 4.71573 -2 13L 2 13ZM 13 2C 19.0751 2 24 6.92487 24 13L 28 13C 28 4.71573 21.2843 -2 13 -2L 13 2Z"/>
<path id="path5_fill" d="M 8 4C 8 6.20914 6.20914 8 4 8C 1.79086 8 0 6.20914 0 4C 0 1.79086 1.79086 0 4 0C 6.20914 0 8 1.79086 8 4Z"/>
</defs>
</svg>
